<svg width="0" height="0" class="hidden">
    <symbol xmlns="http://www.w3.org/2000/svg" fill="none" stroke="currentColor"
        stroke-linecap="round" stroke-linejoin="round" stroke-width="1.5"
        shape-rendering="geometricPrecision" viewBox="0 0 24 24" id="moon">
        <path d="M21 12.79A9 9 0 1 1 11.21 3 7 7 0 0 0 21 12.79z"></path>
    </symbol>
    <symbol xmlns="http://www.w3.org/2000/svg" fill="none" stroke="currentColor"
        stroke-linecap="round" stroke-linejoin="round" stroke-width="1.5"
        shape-rendering="geometricPrecision" viewBox="0 0 24 24" id="sun">
        <circle cx="12" cy="12" r="5"></circle>
        <path
            d="M12 1v2m0 18v2M4.22 4.22l1.42 1.42m12.72 12.72 1.42 1.42M1 12h2m18 0h2M4.22 19.78l1.42-1.42M18.36 5.64l1.42-1.42"></path>
    </symbol>
    <symbol xmlns="http://www.w3.org/2000/svg" fill="none" stroke="currentColor"
        stroke-linecap="round" stroke-linejoin="round" stroke-width="1.5"
        shape-rendering="geometricPrecision" viewBox="0 0 24 24" id="system">
        <rect width="20" height="14" x="2" y="3" rx="2" ry="2"></rect>
        <path d="M8 21h8m-4-4v4"></path>
    </symbol>
</svg>